<svg width="21" height="20" viewBox="0 0 21 20" fill="none" xmlns="http://www.w3.org/2000/svg">
<path d="M14 17.5H6.27614C5.7713 17.5 5.51887 17.5 5.40199 17.4002C5.30056 17.3135 5.24674 17.1836 5.25721 17.0506C5.26927 16.8974 5.44776 16.7189 5.80474 16.3619L12.8905 9.27614C13.2205 8.94613 13.3855 8.78112 13.5758 8.7193C13.7432 8.66492 13.9235 8.66492 14.0908 8.7193C14.2811 8.78112 14.4461 8.94613 14.7761 9.27614L18 12.5V13.5M14 17.5C15.4001 17.5 16.1002 17.5 16.635 17.2275C17.1054 16.9878 17.4878 16.6054 17.7275 16.135C18 15.6002 18 14.9001 18 13.5M14 17.5H7C5.59987 17.5 4.8998 17.5 4.36502 17.2275C3.89462 16.9878 3.51217 16.6054 3.27248 16.135C3 15.6002 3 14.9001 3 13.5V6.5C3 5.09987 3 4.3998 3.27248 3.86502C3.51217 3.39462 3.89462 3.01217 4.36502 2.77248C4.8998 2.5 5.59987 2.5 7 2.5H14C15.4001 2.5 16.1002 2.5 16.635 2.77248C17.1054 3.01217 17.4878 3.39462 17.7275 3.86502C18 4.3998 18 5.09987 18 6.5V13.5M9.25 7.08333C9.25 8.00381 8.50381 8.75 7.58333 8.75C6.66286 8.75 5.91667 8.00381 5.91667 7.08333C5.91667 6.16286 6.66286 5.41667 7.58333 5.41667C8.50381 5.41667 9.25 6.16286 9.25 7.08333Z" stroke="#A4A7AE" stroke-width="1.67" stroke-linecap="round" stroke-linejoin="round"/>
</svg>
