<svg width="56" height="57" viewBox="0 0 56 57" fill="none" xmlns="http://www.w3.org/2000/svg">
<rect x="4" y="4.5" width="48" height="48" rx="24" fill="#DFF3EC"/>
<rect x="4" y="4.5" width="48" height="48" rx="24" stroke="#EAF8F2" stroke-width="8"/>
<path d="M20.7281 32.6368C19.1831 31.0908 18.4101 30.3188 18.1231 29.3158C17.8351 28.3128 18.0811 27.2478 18.5731 25.1188L18.8561 23.8908C19.2691 22.0988 19.4761 21.2028 20.0891 20.5888C20.7021 19.9748 21.5991 19.7688 23.3911 19.3558L24.6191 19.0718C26.7491 18.5808 27.8131 18.3348 28.8161 18.6218C29.8191 18.9098 30.5911 19.6828 32.1361 21.2278L33.9661 23.0578C36.6571 25.7478 38.0001 27.0918 38.0001 28.7618C38.0001 30.4328 36.6561 31.7768 33.9671 34.4658C31.2771 37.1558 29.9331 38.4998 28.2621 38.4998C26.5921 38.4998 25.2471 37.1558 22.5581 34.4668L20.7281 32.6368Z" stroke="#017544" stroke-width="1.5"/>
<path d="M26.0212 26.7931C26.8023 26.0121 26.8023 24.7457 26.0212 23.9647C25.2402 23.1836 23.9738 23.1836 23.1928 23.9647C22.4117 24.7457 22.4117 26.0121 23.1928 26.7931C23.9738 27.5742 25.2402 27.5742 26.0212 26.7931Z" stroke="#017544" stroke-width="1.5"/>
<path d="M27.542 34.9995L34.521 28.0195" stroke="#017544" stroke-width="1.5" stroke-linecap="round"/>
</svg>
