<svg width="21" height="20" viewBox="0 0 21 20" fill="none" xmlns="http://www.w3.org/2000/svg">
<path d="M2.1665 10.0007C2.1665 6.85815 2.1665 5.28648 3.14317 4.31065C4.11984 3.33482 5.69067 3.33398 8.83317 3.33398H12.1665C15.309 3.33398 16.8807 3.33398 17.8565 4.31065C18.8323 5.28732 18.8332 6.85815 18.8332 10.0007V11.6673C18.8332 14.8098 18.8332 16.3815 17.8565 17.3573C16.8798 18.3331 15.309 18.334 12.1665 18.334H8.83317C5.69067 18.334 4.119 18.334 3.14317 17.3573C2.16734 16.3806 2.1665 14.8098 2.1665 11.6673V10.0007Z" stroke="#9CA3AF" stroke-width="1.25"/>
<path d="M6.33301 3.33398V2.08398M14.6663 3.33398V2.08398M2.58301 7.50065H18.4163" stroke="#9CA3AF" stroke-width="1.25" stroke-linecap="round"/>
<path d="M15.5 14.1667C15.5 14.3877 15.4122 14.5996 15.2559 14.7559C15.0996 14.9122 14.8877 15 14.6667 15C14.4457 15 14.2337 14.9122 14.0774 14.7559C13.9211 14.5996 13.8333 14.3877 13.8333 14.1667C13.8333 13.9457 13.9211 13.7337 14.0774 13.5774C14.2337 13.4211 14.4457 13.3333 14.6667 13.3333C14.8877 13.3333 15.0996 13.4211 15.2559 13.5774C15.4122 13.7337 15.5 13.9457 15.5 14.1667ZM15.5 10.8333C15.5 11.0543 15.4122 11.2663 15.2559 11.4226C15.0996 11.5789 14.8877 11.6667 14.6667 11.6667C14.4457 11.6667 14.2337 11.5789 14.0774 11.4226C13.9211 11.2663 13.8333 11.0543 13.8333 10.8333C13.8333 10.6123 13.9211 10.4004 14.0774 10.2441C14.2337 10.0878 14.4457 10 14.6667 10C14.8877 10 15.0996 10.0878 15.2559 10.2441C15.4122 10.4004 15.5 10.6123 15.5 10.8333ZM11.3333 14.1667C11.3333 14.3877 11.2455 14.5996 11.0893 14.7559C10.933 14.9122 10.721 15 10.5 15C10.279 15 10.067 14.9122 9.91074 14.7559C9.75446 14.5996 9.66667 14.3877 9.66667 14.1667C9.66667 13.9457 9.75446 13.7337 9.91074 13.5774C10.067 13.4211 10.279 13.3333 10.5 13.3333C10.721 13.3333 10.933 13.4211 11.0893 13.5774C11.2455 13.7337 11.3333 13.9457 11.3333 14.1667ZM11.3333 10.8333C11.3333 11.0543 11.2455 11.2663 11.0893 11.4226C10.933 11.5789 10.721 11.6667 10.5 11.6667C10.279 11.6667 10.067 11.5789 9.91074 11.4226C9.75446 11.2663 9.66667 11.0543 9.66667 10.8333C9.66667 10.6123 9.75446 10.4004 9.91074 10.2441C10.067 10.0878 10.279 10 10.5 10C10.721 10 10.933 10.0878 11.0893 10.2441C11.2455 10.4004 11.3333 10.6123 11.3333 10.8333ZM7.16667 14.1667C7.16667 14.3877 7.07887 14.5996 6.92259 14.7559C6.76631 14.9122 6.55435 15 6.33333 15C6.11232 15 5.90036 14.9122 5.74408 14.7559C5.5878 14.5996 5.5 14.3877 5.5 14.1667C5.5 13.9457 5.5878 13.7337 5.74408 13.5774C5.90036 13.4211 6.11232 13.3333 6.33333 13.3333C6.55435 13.3333 6.76631 13.4211 6.92259 13.5774C7.07887 13.7337 7.16667 13.9457 7.16667 14.1667ZM7.16667 10.8333C7.16667 11.0543 7.07887 11.2663 6.92259 11.4226C6.76631 11.5789 6.55435 11.6667 6.33333 11.6667C6.11232 11.6667 5.90036 11.5789 5.74408 11.4226C5.5878 11.2663 5.5 11.0543 5.5 10.8333C5.5 10.6123 5.5878 10.4004 5.74408 10.2441C5.90036 10.0878 6.11232 10 6.33333 10C6.55435 10 6.76631 10.0878 6.92259 10.2441C7.07887 10.4004 7.16667 10.6123 7.16667 10.8333Z" fill="#9CA3AF"/>
</svg>
