<svg width="52" height="58" viewBox="0 0 52 58" fill="none" xmlns="http://www.w3.org/2000/svg">
<path d="M13 0.5H37C43.3513 0.5 48.5 5.64873 48.5 12V36C48.5 42.3513 43.3513 47.5 37 47.5H13C6.64873 47.5 1.5 42.3513 1.5 36V12C1.5 5.64873 6.64873 0.5 13 0.5Z" fill="white"/>
<path d="M13 0.5H37C43.3513 0.5 48.5 5.64873 48.5 12V36C48.5 42.3513 43.3513 47.5 37 47.5H13C6.64873 47.5 1.5 42.3513 1.5 36V12C1.5 5.64873 6.64873 0.5 13 0.5Z" stroke="#D5D7DA"/>
<g filter="url(#filter0_dddi_857_8577)">
<path d="M5 12C5 7.58172 8.58172 4 13 4H37C41.4183 4 45 7.58172 45 12V36C45 40.4183 41.4183 44 37 44H13C8.58172 44 5 40.4183 5 36V12Z" fill="white"/>
<path d="M37 3.5C41.6944 3.5 45.5 7.30558 45.5 12V36C45.5 40.6944 41.6944 44.5 37 44.5H13C8.30558 44.5 4.5 40.6944 4.5 36V12C4.5 7.30558 8.30558 3.5 13 3.5H37Z" stroke="black" stroke-opacity="0.08"/>
<path d="M25 33V21.525C25 19.608 25.1204 17.493 23.1573 16.4929C22.435 16.125 21.49 16.125 19.6 16.125H16.675C15.2845 16.125 14.875 16.6166 14.875 17.925V27.825C14.875 28.464 14.8345 29.1694 15.4893 29.5024C15.73 29.625 16.0439 29.625 16.6728 29.625H19.8588C22.5329 29.625 23.5263 30.7905 24.9989 33C26.4726 30.7905 27.466 29.625 30.1401 29.625H33.3273C33.9561 29.625 34.2711 29.625 34.5108 29.5024C35.1644 29.1694 35.125 28.4629 35.125 27.825V17.925C35.125 16.6155 34.7144 16.125 33.325 16.125H30.4C28.51 16.125 27.5639 16.125 26.8416 16.4929C24.8774 17.493 24.9989 19.608 24.9989 21.525" stroke="black" stroke-width="1.5" stroke-linecap="round" stroke-linejoin="round"/>
</g>
<defs>
<filter id="filter0_dddi_857_8577" x="0" y="1" width="52" height="57" filterUnits="userSpaceOnUse" color-interpolation-filters="sRGB">
<feFlood flood-opacity="0" result="BackgroundImageFix"/>
<feColorMatrix in="SourceAlpha" type="matrix" values="0 0 0 0 0 0 0 0 0 0 0 0 0 0 0 0 0 0 127 0" result="hardAlpha"/>
<feOffset dy="1"/>
<feGaussianBlur stdDeviation="1"/>
<feColorMatrix type="matrix" values="0 0 0 0 0.0392157 0 0 0 0 0.0496732 0 0 0 0 0.0705882 0 0 0 0.1 0"/>
<feBlend mode="normal" in2="BackgroundImageFix" result="effect1_dropShadow_857_8577"/>
<feColorMatrix in="SourceAlpha" type="matrix" values="0 0 0 0 0 0 0 0 0 0 0 0 0 0 0 0 0 0 127 0" result="hardAlpha"/>
<feOffset dy="3"/>
<feGaussianBlur stdDeviation="1.5"/>
<feColorMatrix type="matrix" values="0 0 0 0 0.0392157 0 0 0 0 0.0496732 0 0 0 0 0.0705882 0 0 0 0.1 0"/>
<feBlend mode="normal" in2="effect1_dropShadow_857_8577" result="effect2_dropShadow_857_8577"/>
<feColorMatrix in="SourceAlpha" type="matrix" values="0 0 0 0 0 0 0 0 0 0 0 0 0 0 0 0 0 0 127 0" result="hardAlpha"/>
<feOffset dx="1" dy="8"/>
<feGaussianBlur stdDeviation="2.5"/>
<feColorMatrix type="matrix" values="0 0 0 0 0.0392157 0 0 0 0 0.0496732 0 0 0 0 0.0705882 0 0 0 0.05 0"/>
<feBlend mode="normal" in2="effect2_dropShadow_857_8577" result="effect3_dropShadow_857_8577"/>
<feBlend mode="normal" in="SourceGraphic" in2="effect3_dropShadow_857_8577" result="shape"/>
<feColorMatrix in="SourceAlpha" type="matrix" values="0 0 0 0 0 0 0 0 0 0 0 0 0 0 0 0 0 0 127 0" result="hardAlpha"/>
<feOffset dy="-2"/>
<feGaussianBlur stdDeviation="1"/>
<feComposite in2="hardAlpha" operator="arithmetic" k2="-1" k3="1"/>
<feColorMatrix type="matrix" values="0 0 0 0 0.0392157 0 0 0 0 0.0496732 0 0 0 0 0.0705882 0 0 0 0.1 0"/>
<feBlend mode="normal" in2="shape" result="effect4_innerShadow_857_8577"/>
</filter>
</defs>
</svg>
