<svg width="21" height="20" viewBox="0 0 21 20" fill="none" xmlns="http://www.w3.org/2000/svg">
<path d="M18 9.99935L8 9.99935M18 4.99935L8 4.99935M18 14.9993L8 14.9993M4.66667 9.99935C4.66667 10.4596 4.29357 10.8327 3.83333 10.8327C3.3731 10.8327 3 10.4596 3 9.99935C3 9.53911 3.3731 9.16602 3.83333 9.16602C4.29357 9.16602 4.66667 9.53911 4.66667 9.99935ZM4.66667 4.99935C4.66667 5.45959 4.29357 5.83268 3.83333 5.83268C3.3731 5.83268 3 5.45959 3 4.99935C3 4.53911 3.3731 4.16602 3.83333 4.16602C4.29357 4.16602 4.66667 4.53911 4.66667 4.99935ZM4.66667 14.9993C4.66667 15.4596 4.29357 15.8327 3.83333 15.8327C3.3731 15.8327 3 15.4596 3 14.9993C3 14.5391 3.3731 14.166 3.83333 14.166C4.29357 14.166 4.66667 14.5391 4.66667 14.9993Z" stroke="#A4A7AE" stroke-width="1.67" stroke-linecap="round" stroke-linejoin="round"/>
</svg>
