<svg width="56" height="57" viewBox="0 0 56 57" fill="none" xmlns="http://www.w3.org/2000/svg">
<rect x="4" y="4.5" width="48" height="48" rx="24" fill="#DFF3EC"/>
<rect x="4" y="4.5" width="48" height="48" rx="24" stroke="#EAF8F2" stroke-width="8"/>
<path d="M30 30.4999V22.4999M30 30.4999L36.102 33.9869C36.1932 34.039 36.2965 34.0664 36.4015 34.0661C36.5066 34.0658 36.6097 34.038 36.7007 33.9853C36.7916 33.9327 36.8671 33.8571 36.9196 33.7661C36.9721 33.6751 36.9999 33.5719 37 33.4669V19.5329C37 19.4277 36.9724 19.3244 36.92 19.2333C36.8675 19.1421 36.792 19.0664 36.7011 19.0136C36.6102 18.9609 36.5069 18.9329 36.4018 18.9326C36.2966 18.9323 36.1933 18.9596 36.102 19.0119L30 22.4999M30 30.4999H23M30 22.4999H23C21.9391 22.4999 20.9217 22.9213 20.1716 23.6714C19.4214 24.4216 19 25.439 19 26.4999C19 27.5607 19.4214 28.5781 20.1716 29.3283C20.9217 30.0784 21.9391 30.4999 23 30.4999M23 30.4999L23.757 35.7999C23.836 36.3155 24.1153 36.7791 24.5342 37.09C24.9531 37.4009 25.4778 37.5339 25.9942 37.4602C26.5106 37.3864 26.977 37.1118 27.2922 36.696C27.6073 36.2803 27.7456 35.757 27.677 35.2399L27 30.4999H23Z" stroke="#017544" stroke-width="1.5"/>
</svg>
